<svg width="31" height="29" viewBox="0 0 31 29" fill="none" xmlns="http://www.w3.org/2000/svg">
<g clip-path="url(#clip0_2200_262)">
<path d="M11.6284 10.7553C13.3931 11.662 15.1574 12.5679 16.9212 13.4731C17.6931 13.8687 18.6948 14.4838 19.4254 14.748C20.8721 13.8382 22.2741 12.8544 23.693 11.9068C24.6272 11.2842 25.5614 10.659 26.4956 10.0313C26.1253 9.87737 25.7445 9.74995 25.3562 9.64996L25.3521 9.65233C24.2008 10.0533 23.0231 10.3739 21.8274 10.6118C20.7812 10.803 19.7432 11.1224 18.6832 11.2138C18.6518 11.2163 18.6202 11.2107 18.5915 11.1976C18.5572 11.1963 18.5241 11.1852 18.4961 11.1654C17.1788 10.2407 15.6617 9.52802 14.2358 8.78246C12.8862 8.07734 11.5807 7.29697 10.2519 6.55582C10.1536 6.56729 10.0543 6.56756 9.956 6.55664C9.91773 6.55243 9.88025 6.54274 9.84473 6.52786C9.80365 6.52566 9.76342 6.51526 9.72643 6.49727C9.11543 6.19847 8.53694 5.83732 8.0002 5.41958C7.99641 5.41861 7.9924 5.41894 7.98881 5.4205C7.50581 5.42076 7.02458 5.36207 6.55579 5.24575C5.62136 5.57675 4.79771 6.16169 4.17732 6.93489C4.94697 7.23011 5.68993 7.70855 6.41748 8.07953C8.1559 8.96995 9.89287 9.86189 11.6284 10.7553Z" fill="white"/>
<path d="M14.7252 8.60953C15.976 9.28138 17.2989 9.90046 18.4803 10.6949C18.7014 9.942 19.0677 9.23962 19.2662 8.47886C18.0736 7.7427 16.6751 7.46019 15.337 7.08963C14.0992 6.74679 12.8588 6.42059 11.6459 6.10513C11.5304 6.14113 11.4211 6.19489 11.322 6.26449C11.2289 6.36138 11.1444 6.46623 11.0695 6.57784C12.2854 7.26068 13.4961 7.94876 14.7252 8.60953Z" fill="white"/>
<path d="M16.6549 16.6922C17.405 17.099 18.368 17.7399 19.1139 18.0176C19.1334 17.0391 19.1644 16.0635 19.2451 15.084C18.4656 14.7901 17.7112 14.3048 16.9774 13.929C15.2384 13.0397 13.5005 12.1482 11.7638 11.2546C10.0007 10.3476 8.23651 9.44142 6.47119 8.536C5.68909 8.13591 4.66794 7.50639 3.93446 7.24895C3.85645 7.36068 3.78525 7.47417 3.72053 7.58729C3.72125 7.59522 3.72239 7.60311 3.72397 7.61092C3.74614 8.30436 3.78975 8.99584 3.83539 9.68649C6.3812 11.0193 8.87875 12.4509 11.4011 13.8304C13.1496 14.7853 14.9008 15.7392 16.6549 16.6922Z" fill="white"/>
<path d="M21.0871 6.68361C21.2457 6.48538 21.4163 6.29958 21.5906 6.12043C20.4074 5.73739 19.2639 5.24102 18.1761 4.63822C18.1619 4.63734 18.1479 4.6356 18.134 4.63302C17.7798 4.54531 17.4151 4.50557 17.0593 4.41721C17.048 4.41408 17.0371 4.41002 17.0265 4.40509C16.5225 4.70359 16.0009 4.97122 15.4645 5.20649C15.4374 5.26138 15.3916 5.3048 15.3353 5.32894C15.2791 5.35307 15.216 5.35634 15.1576 5.33816C15.0022 5.29798 14.7236 5.22412 14.4921 5.14332C14.024 5.38616 13.6371 5.86237 13.1617 6.10515C14.1163 6.35561 15.0866 6.6179 16.0438 6.88793C17.2449 7.22695 18.4253 7.50012 19.4915 8.17154C20.1751 7.94375 20.6556 7.222 21.0871 6.68361Z" fill="white"/>
<path d="M22.8503 5.44297C22.239 6.0193 21.658 6.62693 21.1097 7.26339C20.7045 7.75217 20.2629 8.29363 19.6509 8.51789C19.454 9.30841 19.0671 10.0325 18.8408 10.8125C20.0187 10.6742 21.1832 10.439 22.3225 10.1093C23.2962 9.84122 24.2901 9.6045 25.2476 9.28311C25.2667 9.27747 25.2865 9.27433 25.3064 9.27376C25.3407 9.26081 25.3781 9.25865 25.4136 9.26757C25.9138 9.39618 26.4021 9.56719 26.8733 9.77876L26.8752 9.77926C27.1281 9.61725 27.4111 9.44026 27.6504 9.27312C27.2286 9.05355 26.8226 8.80502 26.4352 8.52931C26.4067 8.50749 26.3828 8.48021 26.365 8.44907C26.333 8.43264 26.3051 8.40914 26.2835 8.38035C26.2619 8.35156 26.2472 8.31823 26.2404 8.28289C26.1153 7.86176 26.0689 7.4212 26.1034 6.98326C25.1915 6.21802 24.2505 5.55829 23.0932 5.22491C23.0153 5.30097 22.9341 5.37411 22.8503 5.44297Z" fill="white"/>
<path d="M19.1074 18.4259C18.2358 18.1307 17.3909 17.5297 16.5877 17.0941C14.8473 16.1521 13.1087 15.2051 11.372 14.2531C8.86939 12.8842 6.38893 11.4666 3.86492 10.1373C3.94308 11.2994 4.01969 12.4604 4.01731 13.6287C4.01578 15.441 3.86487 17.3728 4.36743 19.1345C4.85408 19.5259 5.98196 20.025 6.65098 20.3884C8.25542 21.2593 9.86264 22.1265 11.4726 22.9899C13.8191 24.2487 16.1401 25.6268 18.5478 26.762C18.5735 26.7753 18.6004 26.786 18.6282 26.7942C18.4604 24.9287 18.9459 23.008 19.0348 21.1411C19.0781 20.2365 19.0916 19.332 19.1074 18.4259Z" fill="white"/>
<path d="M23.8844 12.2364C22.4696 13.1825 21.0697 14.1655 19.628 15.0701C19.5493 15.9901 19.525 16.9108 19.5092 17.8318C22.2791 15.85 25.1767 14.044 27.9433 12.0595C27.9707 11.6851 28.0247 11.3131 28.105 10.9463C28.1698 10.4768 28.0674 9.99826 28.0691 9.52567C28.0496 9.51312 28.0291 9.49848 28.0079 9.48528C27.6371 9.76826 27.2117 10.0071 26.8309 10.2625C25.8519 10.9233 24.8698 11.5812 23.8844 12.2364Z" fill="white"/>
<path d="M19.419 21.1396C19.3094 22.9126 18.8859 24.7673 18.9926 26.5483C19.3144 26.2703 19.6611 26.0225 20.0282 25.8079C20.7732 25.2945 21.4744 24.7202 22.1246 24.0909C23.4204 22.8575 24.6146 21.5217 25.6957 20.0964C25.702 20.0715 25.7107 20.0472 25.722 20.0241C26.0623 19.3253 26.2092 18.5481 26.1475 17.7733C26.1463 17.7508 26.1477 17.7283 26.1517 17.7062C26.1347 17.6612 26.1328 17.6119 26.1465 17.5657C26.1601 17.5196 26.1885 17.4792 26.2273 17.4508C26.6073 17.0944 26.9247 16.6769 27.1664 16.2154C27.4105 15.8037 27.7202 15.4371 27.9294 15.007C27.9399 14.9871 27.9524 14.9682 27.9667 14.9507C28.1655 14.175 28.43 13.2032 28.0724 12.4437C25.2567 14.4571 22.3116 16.2865 19.5055 18.3099C19.4904 19.2532 19.4766 20.1955 19.419 21.1396Z" fill="white"/>
</g>
<defs>
<clipPath id="clip0_2200_262">
<rect width="30.0178" height="27.6374" fill="white" transform="translate(0 0.679688)"/>
</clipPath>
</defs>
</svg>
