<svg width="382" height="382" viewBox="0 0 382 382" fill="none" xmlns="http://www.w3.org/2000/svg">
<path d="M95.5303 95.954C77.2313 114.239 64.6014 137.419 59.1574 162.711C53.7133 188.003 55.6866 214.331 64.8404 238.534C73.9941 262.736 89.939 283.784 110.76 299.149C131.581 314.514 156.393 323.544 182.217 325.153L182.174 56.83C149.487 58.8758 118.676 72.7886 95.5303 95.954Z" fill="#DDE8C0"/>
<path d="M286.461 95.9439C263.314 72.7765 232.502 58.861 199.814 56.8123L199.795 325.135C225.618 323.528 250.43 314.501 271.249 299.138C292.069 283.774 308.012 262.728 317.164 238.526C326.315 214.325 328.286 187.997 322.84 162.704C317.394 137.412 304.762 114.23 286.461 95.9439Z" fill="#FCE300"/>
</svg>
