<svg width="374" height="250" viewBox="0 0 374 250" fill="none" xmlns="http://www.w3.org/2000/svg">
<g clip-path="url(#clip0_2169_7675)">
<path d="M-111.34 85V20.2H-101.8V85H-111.34ZM-94.7884 85V20.2H-83.7184L-49.3384 75.64L-51.4984 76.09V20.2H-42.3184V85H-53.3884L-87.7684 29.56L-85.6084 29.11V85H-94.7884ZM-17.1684 85V28.03H-39.0384V20.2H14.2416V28.03H-7.62836V85H-17.1684ZM17.5041 85V20.2H27.0441V85H17.5041ZM22.1841 85V77.17H62.5041V85H22.1841ZM22.1841 55.39V47.56H59.2642V55.39H22.1841ZM22.1841 28.03V20.2H61.6941V28.03H22.1841ZM66.0458 85V20.2H91.6058C96.2858 20.2 100.276 20.98 103.576 22.54C106.876 24.04 109.426 26.17 111.226 28.93C113.026 31.63 113.926 34.84 113.926 38.56C113.926 42.28 113.026 45.52 111.226 48.28C109.426 51.04 106.876 53.2 103.576 54.76C100.276 56.32 96.2858 57.1 91.6058 57.1H73.2458V49.36H91.3358C95.6558 49.36 98.9258 48.43 101.146 46.57C103.426 44.65 104.566 42.01 104.566 38.65C104.566 35.29 103.456 32.68 101.236 30.82C99.0158 28.96 95.7158 28.03 91.3358 28.03H75.5858V85H66.0458ZM103.486 85L71.8958 52.33H83.5058L117.166 85H103.486ZM115.47 85L139.86 20.2H148.14L124.83 85H115.47ZM165.6 85L142.29 20.2H151.02L175.5 85H165.6ZM127.8 59.17H162.54V67.09H127.8V59.17ZM203.531 85.9C199.031 85.9 194.861 85.09 191.021 83.47C187.181 81.79 183.851 79.48 181.031 76.54C178.271 73.54 176.111 70 174.551 65.92C172.991 61.84 172.211 57.37 172.211 52.51C172.211 47.65 172.961 43.21 174.461 39.19C176.021 35.11 178.181 31.6 180.941 28.66C183.761 25.66 187.091 23.35 190.931 21.73C194.771 20.11 198.941 19.3 203.441 19.3C208.481 19.3 213.011 20.32 217.031 22.36C221.051 24.34 224.321 27.16 226.841 30.82C229.421 34.48 231.011 38.74 231.611 43.6H222.251C221.471 38.5 219.401 34.54 216.041 31.72C212.741 28.84 208.571 27.4 203.531 27.4C199.271 27.4 195.491 28.45 192.191 30.55C188.951 32.59 186.431 35.5 184.631 39.28C182.831 43 181.931 47.41 181.931 52.51C181.931 57.55 182.831 61.99 184.631 65.83C186.491 69.61 189.041 72.55 192.281 74.65C195.521 76.75 199.271 77.8 203.531 77.8C208.571 77.8 212.771 76.39 216.131 73.57C219.551 70.69 221.621 66.7 222.341 61.6H231.791C231.131 66.52 229.511 70.81 226.931 74.47C224.351 78.07 221.051 80.89 217.031 82.93C213.071 84.91 208.571 85.9 203.531 85.9ZM249.72 85V28.03H227.85V20.2H281.13V28.03H259.26V85H249.72ZM284.393 85V20.2H293.933V85H284.393ZM321.554 85L297.164 20.2H307.244L328.664 79.24H326.234L347.654 20.2H357.194L332.714 85H321.554ZM360.474 85V20.2H370.014V85H360.474ZM365.154 85V77.17H405.474V85H365.154ZM365.154 55.39V47.56H402.234V55.39H365.154ZM365.154 28.03V20.2H404.664V28.03H365.154Z" fill="white"/>
<path d="M37.77 161.9C29.49 161.9 23.13 159.47 18.69 154.61C14.25 149.75 12.03 142.82 12.03 133.82V96.2H21.57V134.9C21.57 141.08 22.98 145.79 25.8 149.03C28.62 152.21 32.61 153.8 37.77 153.8C43.05 153.8 47.1 152.21 49.92 149.03C52.74 145.85 54.15 141.14 54.15 134.9V96.2H63.69V134C63.69 142.88 61.44 149.75 56.94 154.61C52.5 159.47 46.11 161.9 37.77 161.9ZM109.999 161L90.0192 131.3L65.7192 96.2H76.8792L95.7792 124.28L121.159 161H109.999ZM91.2792 124.37L110.899 96.2H121.159L95.5092 132.2L91.2792 124.37ZM94.2492 132.56L74.5392 161H64.2792L90.1092 124.73L94.2492 132.56ZM153.181 161V153.08H170.191C175.351 153.08 179.761 152.03 183.421 149.93C187.141 147.83 189.991 144.92 191.971 141.2C193.951 137.48 194.941 133.16 194.941 128.24C194.941 123.38 193.951 119.15 191.971 115.55C190.051 111.95 187.231 109.16 183.511 107.18C179.851 105.14 175.411 104.12 170.191 104.12H153.271V96.2H170.191C177.151 96.2 183.211 97.52 188.371 100.16C193.531 102.8 197.521 106.55 200.341 111.41C203.221 116.21 204.661 121.88 204.661 128.42C204.661 134.96 203.221 140.69 200.341 145.61C197.461 150.47 193.441 154.25 188.281 156.95C183.181 159.65 177.181 161 170.281 161H153.181ZM147.421 161V96.2H156.961V161H147.421ZM208.885 161V96.2H218.425V161H208.885ZM213.565 161V153.17H253.885V161H213.565ZM213.565 131.39V123.56H250.645V131.39H213.565ZM213.565 104.03V96.2H253.075V104.03H213.565ZM279.688 161.81C271.888 161.81 265.648 159.95 260.968 156.23C256.288 152.51 253.558 147.2 252.778 140.3H262.048C262.588 144.8 264.388 148.22 267.448 150.56C270.508 152.9 274.648 154.07 279.868 154.07C284.248 154.07 287.548 153.26 289.768 151.64C292.048 150.02 293.188 147.71 293.188 144.71C293.188 142.01 292.438 139.88 290.938 138.32C289.438 136.7 287.068 135.38 283.828 134.36L272.578 130.76C266.818 128.9 262.588 126.56 259.888 123.74C257.188 120.92 255.838 117.35 255.838 113.03C255.838 109.37 256.738 106.22 258.538 103.58C260.398 100.94 262.978 98.9 266.278 97.46C269.638 95.96 273.538 95.21 277.978 95.21C284.818 95.21 290.278 96.95 294.358 100.43C298.498 103.85 300.868 108.62 301.468 114.74H292.198C291.478 110.66 289.918 107.69 287.518 105.83C285.118 103.91 281.818 102.95 277.618 102.95C273.658 102.95 270.568 103.73 268.348 105.29C266.128 106.85 265.018 109.04 265.018 111.86C265.018 114.14 265.738 116.06 267.178 117.62C268.678 119.12 271.138 120.41 274.558 121.49L286.348 125.27C291.808 127.01 295.828 129.38 298.408 132.38C301.048 135.38 302.368 139.16 302.368 143.72C302.368 149.48 300.388 153.95 296.428 157.13C292.468 160.25 286.888 161.81 279.688 161.81ZM305.972 161V96.2H315.512V161H305.972ZM352.674 161.9C345.894 161.9 340.044 160.55 335.124 157.85C330.204 155.09 326.394 151.25 323.694 146.33C321.054 141.41 319.734 135.62 319.734 128.96C319.734 122.36 321.054 116.54 323.694 111.5C326.394 106.4 330.114 102.44 334.854 99.62C339.594 96.74 345.054 95.3 351.234 95.3C356.154 95.3 360.594 96.23 364.554 98.09C368.574 99.89 371.844 102.41 374.364 105.65C376.944 108.89 378.474 112.64 378.954 116.9H369.414C368.814 112.76 366.894 109.49 363.654 107.09C360.414 104.63 356.364 103.4 351.504 103.4C347.064 103.4 343.194 104.45 339.894 106.55C336.594 108.65 334.014 111.59 332.154 115.37C330.354 119.15 329.454 123.62 329.454 128.78C329.454 134 330.384 138.5 332.244 142.28C334.104 146 336.804 148.88 340.344 150.92C343.944 152.9 348.264 153.89 353.304 153.89C356.904 153.89 360.084 153.38 362.844 152.36C365.604 151.34 368.004 149.84 370.044 147.86L379.314 151.37C375.954 154.85 372.084 157.49 367.704 159.29C363.324 161.03 358.314 161.9 352.674 161.9ZM369.774 151.37V131.48L372.564 134.27H353.214V126.35H379.314V151.37H369.774ZM384.954 161V96.2H396.024L430.404 151.64L428.244 152.09V96.2H437.424V161H426.354L391.974 105.56L394.134 105.11V161H384.954Z" fill="white"/>
<path d="M26.66 237V172.2H36.2V237H26.66ZM31.34 237V229.17H71.66V237H31.34ZM31.34 207.39V199.56H68.42V207.39H31.34ZM31.34 180.03V172.2H70.85V180.03H31.34ZM77.401 237V172.2H88.471L122.851 227.64L120.691 228.09V172.2H129.871V237H118.801L84.421 181.56L86.581 181.11V237H77.401ZM167.081 237.9C160.301 237.9 154.451 236.55 149.531 233.85C144.611 231.09 140.801 227.25 138.101 222.33C135.461 217.41 134.141 211.62 134.141 204.96C134.141 198.36 135.461 192.54 138.101 187.5C140.801 182.4 144.521 178.44 149.261 175.62C154.001 172.74 159.461 171.3 165.641 171.3C170.561 171.3 175.001 172.23 178.961 174.09C182.981 175.89 186.251 178.41 188.771 181.65C191.351 184.89 192.881 188.64 193.361 192.9H183.821C183.221 188.76 181.301 185.49 178.061 183.09C174.821 180.63 170.771 179.4 165.911 179.4C161.471 179.4 157.601 180.45 154.301 182.55C151.001 184.65 148.421 187.59 146.561 191.37C144.761 195.15 143.861 199.62 143.861 204.78C143.861 210 144.791 214.5 146.651 218.28C148.511 222 151.211 224.88 154.751 226.92C158.351 228.9 162.671 229.89 167.711 229.89C171.311 229.89 174.491 229.38 177.251 228.36C180.011 227.34 182.411 225.84 184.451 223.86L193.721 227.37C190.361 230.85 186.491 233.49 182.111 235.29C177.731 237.03 172.721 237.9 167.081 237.9ZM184.181 227.37V207.48L186.971 210.27H167.621V202.35H193.721V227.37H184.181ZM193.121 237L217.511 172.2H225.791L202.481 237H193.121ZM243.251 237L219.941 172.2H228.671L253.151 237H243.251ZM205.451 211.17H240.191V219.09H205.451V211.17ZM282.801 237.9C276.021 237.9 270.171 236.55 265.251 233.85C260.331 231.09 256.521 227.25 253.821 222.33C251.181 217.41 249.861 211.62 249.861 204.96C249.861 198.36 251.181 192.54 253.821 187.5C256.521 182.4 260.241 178.44 264.981 175.62C269.721 172.74 275.181 171.3 281.361 171.3C286.281 171.3 290.721 172.23 294.681 174.09C298.701 175.89 301.971 178.41 304.491 181.65C307.071 184.89 308.601 188.64 309.081 192.9H299.541C298.941 188.76 297.021 185.49 293.781 183.09C290.541 180.63 286.491 179.4 281.631 179.4C277.191 179.4 273.321 180.45 270.021 182.55C266.721 184.65 264.141 187.59 262.281 191.37C260.481 195.15 259.581 199.62 259.581 204.78C259.581 210 260.511 214.5 262.371 218.28C264.231 222 266.931 224.88 270.471 226.92C274.071 228.9 278.391 229.89 283.431 229.89C287.031 229.89 290.211 229.38 292.971 228.36C295.731 227.34 298.131 225.84 300.171 223.86L309.441 227.37C306.081 230.85 302.211 233.49 297.831 235.29C293.451 237.03 288.441 237.9 282.801 237.9ZM299.901 227.37V207.48L302.691 210.27H283.341V202.35H309.441V227.37H299.901ZM315.082 237V172.2H324.622V237H315.082ZM331.633 237V172.2H342.703L377.083 227.64L374.923 228.09V172.2H384.103V237H373.033L338.653 181.56L340.813 181.11V237H331.633ZM421.314 237.9C414.534 237.9 408.684 236.55 403.764 233.85C398.844 231.09 395.034 227.25 392.334 222.33C389.694 217.41 388.374 211.62 388.374 204.96C388.374 198.36 389.694 192.54 392.334 187.5C395.034 182.4 398.754 178.44 403.494 175.62C408.234 172.74 413.694 171.3 419.874 171.3C424.794 171.3 429.234 172.23 433.194 174.09C437.214 175.89 440.484 178.41 443.004 181.65C445.584 184.89 447.114 188.64 447.594 192.9H438.054C437.454 188.76 435.534 185.49 432.294 183.09C429.054 180.63 425.004 179.4 420.144 179.4C415.704 179.4 411.834 180.45 408.534 182.55C405.234 184.65 402.654 187.59 400.794 191.37C398.994 195.15 398.094 199.62 398.094 204.78C398.094 210 399.024 214.5 400.884 218.28C402.744 222 405.444 224.88 408.984 226.92C412.584 228.9 416.904 229.89 421.944 229.89C425.544 229.89 428.724 229.38 431.484 228.36C434.244 227.34 436.644 225.84 438.684 223.86L447.954 227.37C444.594 230.85 440.724 233.49 436.344 235.29C431.964 237.03 426.954 237.9 421.314 237.9ZM438.414 227.37V207.48L441.204 210.27H421.854V202.35H447.954V227.37H438.414Z" fill="white"/>
</g>
<rect x="10.5" y="10.5" width="353" height="229" rx="114.5" stroke="white"/>
<rect x="0.5" y="0.5" width="373" height="249" rx="124.5" stroke="white" stroke-opacity="0.7"/>
<defs>
<clipPath id="clip0_2169_7675">
<rect x="10" y="10" width="354" height="230" rx="115" fill="white"/>
</clipPath>
</defs>
</svg>
