<svg width="374" height="250" viewBox="0 0 374 250" fill="none" xmlns="http://www.w3.org/2000/svg">
<g clip-path="url(#clip0_2260_774)">
<path d="M66.66 85V20.2H94.11C98.79 20.2 102.78 20.98 106.08 22.54C109.38 24.1 111.9 26.32 113.64 29.2C115.44 32.08 116.34 35.5 116.34 39.46C116.34 43.48 115.44 46.96 113.64 49.9C111.9 52.78 109.35 55.03 105.99 56.65C102.69 58.27 98.73 59.08 94.11 59.08H73.95V51.16H93.66C97.92 51.16 101.16 50.14 103.38 48.1C105.66 46.06 106.8 43.21 106.8 39.55C106.8 35.83 105.69 32.98 103.47 31C101.25 29.02 97.98 28.03 93.66 28.03H76.2V85H66.66ZM148.225 85.9C143.605 85.9 139.375 85.09 135.535 83.47C131.695 81.79 128.365 79.45 125.545 76.45C122.725 73.45 120.505 69.91 118.885 65.83C117.325 61.75 116.545 57.25 116.545 52.33C116.545 45.85 117.895 40.12 120.595 35.14C123.295 30.16 127.015 26.29 131.755 23.53C136.555 20.71 142.015 19.3 148.135 19.3C154.375 19.3 159.865 20.71 164.605 23.53C169.345 26.29 173.065 30.16 175.765 35.14C178.525 40.12 179.905 45.88 179.905 52.42C179.905 57.28 179.095 61.78 177.475 65.92C175.915 70 173.725 73.54 170.905 76.54C168.085 79.48 164.725 81.79 160.825 83.47C156.985 85.09 152.785 85.9 148.225 85.9ZM148.135 77.8C152.455 77.8 156.265 76.72 159.565 74.56C162.865 72.34 165.445 69.31 167.305 65.47C169.225 61.63 170.185 57.22 170.185 52.24C170.185 47.32 169.255 43 167.395 39.28C165.535 35.5 162.955 32.59 159.655 30.55C156.355 28.45 152.515 27.4 148.135 27.4C143.755 27.4 139.915 28.45 136.615 30.55C133.375 32.59 130.825 35.47 128.965 39.19C127.165 42.91 126.265 47.26 126.265 52.24C126.265 57.28 127.195 61.72 129.055 65.56C130.915 69.4 133.465 72.4 136.705 74.56C140.005 76.72 143.815 77.8 148.135 77.8ZM196.823 85L178.013 20.2H187.733L204.203 79.87H201.863L217.523 20.2H228.773L244.523 79.87H242.183L258.653 20.2H267.833L249.023 85H237.863L222.023 26.95H223.913L207.983 85H196.823ZM272.233 85V20.2H281.773V85H272.233ZM276.913 85V77.17H317.233V85H276.913ZM276.913 55.39V47.56H313.993V55.39H276.913ZM276.913 28.03V20.2H316.423V28.03H276.913ZM320.774 85V20.2H346.334C351.014 20.2 355.004 20.98 358.304 22.54C361.604 24.04 364.154 26.17 365.954 28.93C367.754 31.63 368.654 34.84 368.654 38.56C368.654 42.28 367.754 45.52 365.954 48.28C364.154 51.04 361.604 53.2 358.304 54.76C355.004 56.32 351.014 57.1 346.334 57.1H327.974V49.36H346.064C350.384 49.36 353.654 48.43 355.874 46.57C358.154 44.65 359.294 42.01 359.294 38.65C359.294 35.29 358.184 32.68 355.964 30.82C353.744 28.96 350.444 28.03 346.064 28.03H330.314V85H320.774ZM358.214 85L326.624 52.33H338.234L371.894 85H358.214Z" fill="#356E5B"/>
<path d="M23.42 161V153.08H40.43C45.59 153.08 50 152.03 53.66 149.93C57.38 147.83 60.23 144.92 62.21 141.2C64.19 137.48 65.18 133.16 65.18 128.24C65.18 123.38 64.19 119.15 62.21 115.55C60.29 111.95 57.47 109.16 53.75 107.18C50.09 105.14 45.65 104.12 40.43 104.12H23.51V96.2H40.43C47.39 96.2 53.45 97.52 58.61 100.16C63.77 102.8 67.76 106.55 70.58 111.41C73.46 116.21 74.9 121.88 74.9 128.42C74.9 134.96 73.46 140.69 70.58 145.61C67.7 150.47 63.68 154.25 58.52 156.95C53.42 159.65 47.42 161 40.52 161H23.42ZM17.66 161V96.2H27.2V161H17.66ZM79.1237 161V96.2H88.6637V161H79.1237ZM83.8037 161V153.17H124.124V161H83.8037ZM83.8037 131.39V123.56H120.884V131.39H83.8037ZM83.8037 104.03V96.2H123.314V104.03H83.8037ZM149.927 161.81C142.127 161.81 135.887 159.95 131.207 156.23C126.527 152.51 123.797 147.2 123.017 140.3H132.287C132.827 144.8 134.627 148.22 137.687 150.56C140.747 152.9 144.887 154.07 150.107 154.07C154.487 154.07 157.787 153.26 160.007 151.64C162.287 150.02 163.427 147.71 163.427 144.71C163.427 142.01 162.677 139.88 161.177 138.32C159.677 136.7 157.307 135.38 154.067 134.36L142.817 130.76C137.057 128.9 132.827 126.56 130.127 123.74C127.427 120.92 126.077 117.35 126.077 113.03C126.077 109.37 126.977 106.22 128.777 103.58C130.637 100.94 133.217 98.9 136.517 97.46C139.877 95.96 143.777 95.21 148.217 95.21C155.057 95.21 160.517 96.95 164.597 100.43C168.737 103.85 171.107 108.62 171.707 114.74H162.437C161.717 110.66 160.157 107.69 157.757 105.83C155.357 103.91 152.057 102.95 147.857 102.95C143.897 102.95 140.807 103.73 138.587 105.29C136.367 106.85 135.257 109.04 135.257 111.86C135.257 114.14 135.977 116.06 137.417 117.62C138.917 119.12 141.377 120.41 144.797 121.49L156.587 125.27C162.047 127.01 166.067 129.38 168.647 132.38C171.287 135.38 172.607 139.16 172.607 143.72C172.607 149.48 170.627 153.95 166.667 157.13C162.707 160.25 157.127 161.81 149.927 161.81ZM176.211 161V96.2H185.751V161H176.211ZM222.913 161.9C216.133 161.9 210.283 160.55 205.363 157.85C200.443 155.09 196.633 151.25 193.933 146.33C191.293 141.41 189.973 135.62 189.973 128.96C189.973 122.36 191.293 116.54 193.933 111.5C196.633 106.4 200.353 102.44 205.093 99.62C209.833 96.74 215.293 95.3 221.473 95.3C226.393 95.3 230.833 96.23 234.793 98.09C238.813 99.89 242.083 102.41 244.603 105.65C247.183 108.89 248.713 112.64 249.193 116.9H239.653C239.053 112.76 237.133 109.49 233.893 107.09C230.653 104.63 226.603 103.4 221.743 103.4C217.303 103.4 213.433 104.45 210.133 106.55C206.833 108.65 204.253 111.59 202.393 115.37C200.593 119.15 199.693 123.62 199.693 128.78C199.693 134 200.623 138.5 202.483 142.28C204.343 146 207.043 148.88 210.583 150.92C214.183 152.9 218.503 153.89 223.543 153.89C227.143 153.89 230.323 153.38 233.083 152.36C235.843 151.34 238.243 149.84 240.283 147.86L249.553 151.37C246.193 154.85 242.323 157.49 237.943 159.29C233.563 161.03 228.553 161.9 222.913 161.9ZM240.013 151.37V131.48L242.803 134.27H223.453V126.35H249.553V151.37H240.013ZM255.193 161V96.2H266.263L300.643 151.64L298.483 152.09V96.2H307.663V161H296.593L262.213 105.56L264.373 105.11V161H255.193ZM338.213 161.81C330.413 161.81 324.173 159.95 319.493 156.23C314.813 152.51 312.083 147.2 311.303 140.3H320.573C321.113 144.8 322.913 148.22 325.973 150.56C329.033 152.9 333.173 154.07 338.393 154.07C342.773 154.07 346.073 153.26 348.293 151.64C350.573 150.02 351.713 147.71 351.713 144.71C351.713 142.01 350.963 139.88 349.463 138.32C347.963 136.7 345.593 135.38 342.353 134.36L331.103 130.76C325.343 128.9 321.113 126.56 318.413 123.74C315.713 120.92 314.363 117.35 314.363 113.03C314.363 109.37 315.263 106.22 317.063 103.58C318.923 100.94 321.503 98.9 324.803 97.46C328.163 95.96 332.063 95.21 336.503 95.21C343.343 95.21 348.803 96.95 352.883 100.43C357.023 103.85 359.393 108.62 359.993 114.74H350.723C350.003 110.66 348.443 107.69 346.043 105.83C343.643 103.91 340.343 102.95 336.143 102.95C332.183 102.95 329.093 103.73 326.873 105.29C324.653 106.85 323.543 109.04 323.543 111.86C323.543 114.14 324.263 116.06 325.703 117.62C327.203 119.12 329.663 120.41 333.083 121.49L344.873 125.27C350.333 127.01 354.353 129.38 356.933 132.38C359.573 135.38 360.893 139.16 360.893 143.72C360.893 149.48 358.913 153.95 354.953 157.13C350.993 160.25 345.413 161.81 338.213 161.81Z" fill="#356E5B"/>
<path d="M39.66 237V172.2H49.2V237H39.66ZM56.2116 237V172.2H70.9716L92.5716 234.66H87.7116L109.132 172.2H124.072V237H114.622V176.07H116.062L95.1816 237H84.5616L63.6816 176.61H65.1216V237H56.2116ZM131.123 237V172.2H158.573C163.253 172.2 167.243 172.98 170.543 174.54C173.843 176.1 176.363 178.32 178.103 181.2C179.903 184.08 180.803 187.5 180.803 191.46C180.803 195.48 179.903 198.96 178.103 201.9C176.363 204.78 173.813 207.03 170.453 208.65C167.153 210.27 163.193 211.08 158.573 211.08H138.413V203.16H158.123C162.383 203.16 165.623 202.14 167.843 200.1C170.123 198.06 171.263 195.21 171.263 191.55C171.263 187.83 170.153 184.98 167.933 183C165.713 181.02 162.443 180.03 158.123 180.03H140.663V237H131.123ZM173.337 237L197.727 172.2H206.007L182.697 237H173.337ZM223.467 237L200.157 172.2H208.887L233.367 237H223.467ZM185.667 211.17H220.407V219.09H185.667V211.17ZM261.398 237.9C256.898 237.9 252.728 237.09 248.888 235.47C245.048 233.79 241.718 231.48 238.898 228.54C236.138 225.54 233.978 222 232.418 217.92C230.858 213.84 230.078 209.37 230.078 204.51C230.078 199.65 230.828 195.21 232.328 191.19C233.888 187.11 236.048 183.6 238.808 180.66C241.628 177.66 244.958 175.35 248.798 173.73C252.638 172.11 256.808 171.3 261.308 171.3C266.348 171.3 270.878 172.32 274.898 174.36C278.918 176.34 282.188 179.16 284.708 182.82C287.288 186.48 288.878 190.74 289.478 195.6H280.118C279.338 190.5 277.268 186.54 273.908 183.72C270.608 180.84 266.438 179.4 261.398 179.4C257.138 179.4 253.358 180.45 250.058 182.55C246.818 184.59 244.298 187.5 242.498 191.28C240.698 195 239.798 199.41 239.798 204.51C239.798 209.55 240.698 213.99 242.498 217.83C244.358 221.61 246.908 224.55 250.148 226.65C253.388 228.75 257.138 229.8 261.398 229.8C266.438 229.8 270.638 228.39 273.998 225.57C277.418 222.69 279.488 218.7 280.208 213.6H289.658C288.998 218.52 287.378 222.81 284.798 226.47C282.218 230.07 278.918 232.89 274.898 234.93C270.938 236.91 266.438 237.9 261.398 237.9ZM307.588 237V180.03H285.718V172.2H338.998V180.03H317.128V237H307.588ZM342.26 237V172.2H351.8V237H342.26ZM346.94 210.09V202.26H382.58V210.09H346.94ZM346.94 180.03V172.2H385.01V180.03H346.94ZM413.453 237.9C405.173 237.9 398.813 235.47 394.373 230.61C389.933 225.75 387.713 218.82 387.713 209.82V172.2H397.253V210.9C397.253 217.08 398.663 221.79 401.483 225.03C404.303 228.21 408.293 229.8 413.453 229.8C418.733 229.8 422.783 228.21 425.603 225.03C428.423 221.85 429.833 217.14 429.833 210.9V172.2H439.373V210C439.373 218.88 437.123 225.75 432.623 230.61C428.183 235.47 421.793 237.9 413.453 237.9ZM445.764 237V172.2H455.304V237H445.764ZM450.444 237V229.17H487.884V237H450.444Z" fill="#356E5B"/>
</g>
<rect x="10.5" y="10.5" width="353" height="229" rx="114.5" stroke="#356E5B"/>
<rect x="0.5" y="0.5" width="373" height="249" rx="124.5" stroke="#356E5B" stroke-opacity="0.7"/>
<defs>
<clipPath id="clip0_2260_774">
<rect x="10" y="10" width="354" height="230" rx="115" fill="white"/>
</clipPath>
</defs>
</svg>
