<svg width="1461" height="190" viewBox="0 0 1461 190" fill="none" xmlns="http://www.w3.org/2000/svg">
<g style="mix-blend-mode:difference">
<path d="M0.75 187V3.39999H40.02V187H0.75ZM57.8461 187V3.39999H108.591L190.191 165.58L177.696 168.64V3.39999H215.946V187H165.201L83.6011 24.82L96.0961 21.76V187H57.8461ZM233.726 187V3.39999H284.471L366.071 165.58L353.576 168.64V3.39999H391.826V187H341.081L259.481 24.82L271.976 21.76V187H233.726ZM498.602 189.55C485.002 189.55 472.422 187.255 460.862 182.665C449.472 178.075 439.527 171.615 431.027 163.285C422.697 154.785 416.152 144.755 411.392 133.195C406.802 121.465 404.507 108.545 404.507 94.435C404.507 75.735 408.502 59.415 416.492 45.475C424.482 31.365 435.532 20.4 449.642 12.58C463.922 4.76 480.157 0.849995 498.347 0.849995C516.877 0.849995 533.197 4.76 547.307 12.58C561.417 20.4 572.467 31.365 580.457 45.475C588.617 59.585 592.697 75.99 592.697 94.69C592.697 108.63 590.317 121.465 585.557 133.195C580.967 144.755 574.422 154.785 565.922 163.285C557.592 171.615 547.647 178.075 536.087 182.665C524.697 187.255 512.202 189.55 498.602 189.55ZM498.347 158.44C509.057 158.44 518.492 155.72 526.652 150.28C534.812 144.84 541.187 137.36 545.777 127.84C550.537 118.15 552.917 106.93 552.917 94.18C552.917 81.6 550.622 70.635 546.032 61.285C541.442 51.935 535.067 44.71 526.907 39.61C518.747 34.51 509.227 31.96 498.347 31.96C487.637 31.96 478.202 34.51 470.042 39.61C461.882 44.71 455.507 51.935 450.917 61.285C446.497 70.465 444.287 81.43 444.287 94.18C444.287 107.1 446.582 118.405 451.172 128.095C455.762 137.615 462.137 145.095 470.297 150.535C478.457 155.805 487.807 158.44 498.347 158.44ZM652.367 187L586.577 3.39999H627.377L677.612 156.4H672.767L723.257 3.39999H762.017L696.227 187H652.367ZM734.566 187L800.356 3.39999H834.016L773.581 187H734.566ZM869.206 187L809.026 3.39999H844.216L910.006 187H869.206ZM769.246 115.855H872.266V146.455H769.246V115.855ZM945.22 187V33.49H885.295V3.39999H1044.42V33.49H984.49V187H945.22ZM1055.6 187V3.39999H1094.87V187H1055.6ZM1112.7 187V3.39999H1163.44L1245.04 165.58L1232.55 168.64V3.39999H1270.8V187H1220.05L1138.45 24.82L1150.95 21.76V187H1112.7ZM1379.36 189.55C1359.47 189.55 1342.38 185.64 1328.1 177.82C1313.82 170 1302.77 159.035 1294.95 144.925C1287.3 130.815 1283.48 114.325 1283.48 95.455C1283.48 76.755 1287.39 60.35 1295.21 46.24C1303.03 31.96 1313.82 20.825 1327.59 12.835C1341.53 4.84499 1357.68 0.849995 1376.04 0.849995C1391.17 0.849995 1404.69 3.57 1416.59 9.01C1428.66 14.45 1438.35 21.93 1445.66 31.45C1453.14 40.8 1457.56 51.68 1458.92 64.09H1419.65C1417.95 54.06 1413.19 46.24 1405.37 40.63C1397.72 34.85 1388.11 31.96 1376.55 31.96C1365.84 31.96 1356.49 34.51 1348.5 39.61C1340.51 44.54 1334.31 51.68 1329.89 61.03C1325.47 70.38 1323.26 81.6 1323.26 94.69C1323.26 108.29 1325.47 119.935 1329.89 129.625C1334.31 139.145 1340.77 146.455 1349.27 151.555C1357.94 156.485 1368.56 158.95 1381.14 158.95C1391.34 158.95 1400.01 157.675 1407.15 155.125C1414.29 152.575 1419.73 149.005 1423.47 144.415L1460.7 159.205C1450.84 169.065 1439.37 176.63 1426.28 181.9C1413.36 187 1397.72 189.55 1379.36 189.55ZM1421.43 159.205V108.715L1429.34 116.62H1380.89V86.53H1460.7V159.205H1421.43Z" fill="white"/>
</g>
</svg>
