<svg width="288" height="270" viewBox="0 0 288 270" fill="none" xmlns="http://www.w3.org/2000/svg">
<path d="M59.807 49.7525C62.1748 41.0439 70.0816 35 79.1063 35H180.836C194.017 35 203.594 47.5282 200.135 60.2475L147.193 254.96C144.825 263.668 136.918 269.712 127.894 269.712H26.1641C12.983 269.712 3.40641 257.184 6.86479 244.465L59.807 49.7525Z" fill="white"/>
<path d="M140.807 15.0338C143.175 6.3252 151.082 0.28125 160.106 0.28125H261.836C275.017 0.28125 284.594 12.8094 281.135 25.5287L228.193 220.241C225.825 228.949 217.918 234.993 208.894 234.993H107.164C93.983 234.993 84.4064 222.465 87.8648 209.746L140.807 15.0338Z" fill="#FF1B20"/>
</svg>
