<svg width="31" height="28" viewBox="0 0 31 28" fill="none" xmlns="http://www.w3.org/2000/svg">
<g clip-path="url(#clip0_2260_841)">
<path d="M11.6284 10.0757C13.3931 10.9823 15.1574 11.8882 16.9212 12.7934C17.6931 13.189 18.6948 13.8042 19.4254 14.0684C20.8721 13.1585 22.2741 12.1747 23.693 11.2271C24.6272 10.6045 25.5614 9.97934 26.4956 9.35157C26.1253 9.19768 25.7445 9.07027 25.3562 8.97027L25.3521 8.97264C24.2008 9.37364 23.0231 9.69424 21.8274 9.93215C20.7812 10.1233 19.7432 10.4427 18.6832 10.5341C18.6518 10.5366 18.6202 10.5311 18.5915 10.5179C18.5572 10.5167 18.5241 10.5055 18.4961 10.4857C17.1788 9.56105 15.6617 8.84834 14.2358 8.10277C12.8862 7.39766 11.5807 6.61728 10.2519 5.87613C10.1536 5.8876 10.0543 5.88787 9.956 5.87695C9.91773 5.87274 9.88025 5.86305 9.84473 5.84817C9.80365 5.84597 9.76342 5.83557 9.72643 5.81758C9.11543 5.51878 8.53694 5.15763 8.0002 4.73989C7.99641 4.73893 7.9924 4.73925 7.98881 4.74081C7.50581 4.74107 7.02458 4.68238 6.55579 4.56606C5.62136 4.89706 4.79771 5.482 4.17732 6.2552C4.94697 6.55042 5.68993 7.02886 6.41748 7.39984C8.1559 8.29026 9.89287 9.1822 11.6284 10.0757Z" fill="white"/>
<path d="M14.7252 7.92985C15.976 8.60169 17.2989 9.22077 18.4803 10.0152C18.7014 9.26231 19.0677 8.55993 19.2662 7.79917C18.0736 7.06301 16.6751 6.7805 15.337 6.40994C14.0992 6.0671 12.8588 5.7409 11.6459 5.42545C11.5304 5.46144 11.4211 5.51521 11.322 5.5848C11.2289 5.68169 11.1444 5.78654 11.0695 5.89816C12.2854 6.58099 13.4961 7.26907 14.7252 7.92985Z" fill="white"/>
<path d="M16.6549 16.0125C17.405 16.4194 18.368 17.0602 19.1139 17.3379C19.1334 16.3594 19.1644 15.3838 19.2451 14.4043C18.4656 14.1104 17.7112 13.6251 16.9774 13.2493C15.2384 12.36 13.5005 11.4685 11.7638 10.5749C10.0007 9.66791 8.23651 8.76173 6.47119 7.85632C5.68909 7.45622 4.66794 6.8267 3.93446 6.56926C3.85645 6.68099 3.78525 6.79449 3.72053 6.9076C3.72125 6.91554 3.72239 6.92342 3.72397 6.93123C3.74614 7.62468 3.78975 8.31616 3.83539 9.0068C6.3812 10.3396 8.87875 11.7712 11.4011 13.1507C13.1496 14.1056 14.9008 15.0595 16.6549 16.0125Z" fill="white"/>
<path d="M21.0871 6.00392C21.2457 5.80569 21.4163 5.61989 21.5906 5.44075C20.4074 5.0577 19.2639 4.56133 18.1761 3.95853C18.1619 3.95765 18.1479 3.95592 18.134 3.95333C17.7798 3.86562 17.4151 3.82588 17.0593 3.73752C17.048 3.73439 17.0371 3.73034 17.0265 3.7254C16.5225 4.0239 16.0009 4.29153 15.4645 4.5268C15.4374 4.5817 15.3916 4.62512 15.3353 4.64925C15.2791 4.67339 15.216 4.67666 15.1576 4.65847C15.0022 4.61829 14.7236 4.54443 14.4921 4.46364C14.024 4.70647 13.6371 5.18268 13.1617 5.42546C14.1163 5.67592 15.0866 5.93821 16.0438 6.20824C17.2449 6.54726 18.4253 6.82043 19.4915 7.49186C20.1751 7.26406 20.6556 6.54231 21.0871 6.00392Z" fill="white"/>
<path d="M22.8503 4.76328C22.239 5.33962 21.658 5.94724 21.1097 6.5837C20.7045 7.07248 20.2629 7.61394 19.6509 7.8382C19.454 8.62873 19.0671 9.35283 18.8408 10.1328C20.0187 9.99449 21.1832 9.75929 22.3225 9.42961C23.2962 9.16154 24.2901 8.92481 25.2476 8.60342C25.2667 8.59778 25.2865 8.59464 25.3064 8.59407C25.3407 8.58112 25.3781 8.57896 25.4136 8.58789C25.9138 8.71649 26.4021 8.88751 26.8733 9.09908L26.8752 9.09957C27.1281 8.93756 27.4111 8.76057 27.6504 8.59343C27.2286 8.37386 26.8226 8.12533 26.4352 7.84962C26.4067 7.8278 26.3828 7.80053 26.365 7.76938C26.333 7.75295 26.3051 7.72945 26.2835 7.70066C26.2619 7.67187 26.2472 7.63854 26.2404 7.6032C26.1153 7.18207 26.0689 6.74152 26.1034 6.30357C25.1915 5.53834 24.2505 4.8786 23.0932 4.54522C23.0153 4.62128 22.9341 4.69443 22.8503 4.76328Z" fill="white"/>
<path d="M19.1074 17.7462C18.2358 17.451 17.3909 16.85 16.5877 16.4145C14.8473 15.4724 13.1087 14.5254 11.372 13.5734C8.86939 12.2045 6.38893 10.7869 3.86492 9.45763C3.94308 10.6197 4.01969 11.7807 4.01731 12.949C4.01578 14.7613 3.86487 16.6931 4.36743 18.4548C4.85408 18.8463 5.98196 19.3453 6.65098 19.7087C8.25542 20.5796 9.86264 21.4468 11.4726 22.3102C13.8191 23.569 16.1401 24.9472 18.5478 26.0824C18.5735 26.0956 18.6004 26.1064 18.6282 26.1145C18.4604 24.2491 18.9459 22.3283 19.0348 20.4615C19.0781 19.5569 19.0916 18.6523 19.1074 17.7462Z" fill="white"/>
<path d="M23.8844 11.5567C22.4696 12.5028 21.0697 13.4858 19.628 14.3904C19.5493 15.3104 19.525 16.2311 19.5092 17.1521C22.2791 15.1703 25.1767 13.3643 27.9433 11.3798C27.9707 11.0054 28.0247 10.6334 28.105 10.2666C28.1698 9.79713 28.0674 9.31857 28.0691 8.84598C28.0496 8.83343 28.0291 8.8188 28.0079 8.8056C27.6371 9.08857 27.2117 9.32742 26.8309 9.58282C25.8519 10.2436 24.8698 10.9015 23.8844 11.5567Z" fill="white"/>
<path d="M19.419 20.4599C19.3094 22.2329 18.8859 24.0876 18.9926 25.8686C19.3144 25.5907 19.6611 25.3428 20.0282 25.1282C20.7732 24.6148 21.4744 24.0405 22.1246 23.4112C23.4204 22.1779 24.6146 20.842 25.6957 19.4168C25.702 19.3918 25.7107 19.3675 25.722 19.3444C26.0623 18.6456 26.2092 17.8684 26.1475 17.0936C26.1463 17.0711 26.1477 17.0486 26.1517 17.0265C26.1347 16.9815 26.1328 16.9322 26.1465 16.886C26.1601 16.8399 26.1885 16.7995 26.2273 16.7711C26.6073 16.4148 26.9247 15.9972 27.1664 15.5357C27.4105 15.124 27.7202 14.7574 27.9294 14.3274C27.9399 14.3074 27.9524 14.2885 27.9667 14.271C28.1655 13.4953 28.43 12.5235 28.0724 11.764C25.2567 13.7774 22.3116 15.6068 19.5055 17.6302C19.4904 18.5735 19.4766 19.5158 19.419 20.4599Z" fill="white"/>
</g>
<defs>
<clipPath id="clip0_2260_841">
<rect width="30.0178" height="27.6374" fill="white"/>
</clipPath>
</defs>
</svg>
