<svg width="1489" height="123" viewBox="0 0 1489 123" fill="none" xmlns="http://www.w3.org/2000/svg">
<g clip-path="url(#clip0_2218_71429)">
<g style="mix-blend-mode:difference">
<path d="M142.388 279C115.636 279 91.7584 273.093 70.7564 261.28C50.0044 249.466 33.6278 233.003 21.6267 211.889C9.87556 190.776 4 166.269 4 138.369C4 110.72 9.87556 86.5905 21.6267 65.9797C33.3778 45.1176 49.6294 28.9054 70.3814 17.3432C91.3834 5.78108 115.261 0 142.013 0C169.266 0 193.268 5.78108 214.02 17.3432C234.772 28.9054 251.024 45.1176 262.775 65.9797C274.776 86.8419 280.776 111.097 280.776 138.746C280.776 156.341 277.901 172.93 272.151 188.513C266.65 204.097 257.649 217.545 245.148 228.855C232.897 240.166 216.645 248.586 196.393 254.116L142.388 279ZM142.013 235.265C157.765 235.265 171.641 231.369 183.642 223.577C195.643 215.785 205.019 204.6 211.77 190.022C218.771 175.443 222.271 158.1 222.271 137.992C222.271 119.392 218.896 103.18 212.145 89.3554C205.394 75.5311 196.018 64.8486 184.017 57.3081C172.016 49.7676 158.015 45.9973 142.013 45.9973C126.262 45.9973 112.385 49.7676 100.384 57.3081C88.3831 64.8486 79.0072 75.5311 72.2565 89.3554C65.7559 102.928 62.5056 119.141 62.5056 137.992C62.5056 158.351 65.8809 175.82 72.6316 190.399C79.3822 204.726 88.7581 215.785 100.759 223.577C112.76 231.369 126.512 235.265 142.013 235.265ZM142.388 279V238.281L294.653 230.741V275.23C278.651 275.23 264.275 275.355 251.524 275.607C239.022 276.109 227.146 276.612 215.895 277.115C204.644 277.618 193.143 277.995 181.392 278.246C169.641 278.749 156.64 279 142.388 279Z" fill="white"/>
<path d="M418.85 279C380.346 279 351.469 268.443 332.217 247.33C313.215 225.965 303.714 194.923 303.714 154.204V3.77027H361.47V164.384C361.47 188.011 366.595 205.354 376.846 216.413C387.097 227.473 401.223 233.003 419.225 233.003C437.227 233.003 451.353 227.473 461.604 216.413C471.855 205.354 476.981 188.136 476.981 164.761V3.77027H534.736V154.958C534.736 195.174 525.11 225.965 505.858 247.33C486.607 268.443 457.604 279 418.85 279Z" fill="white"/>
<path d="M534.31 275.23L631.07 3.77027H680.574L591.691 275.23H534.31ZM732.329 275.23L643.821 3.77027H695.576L792.335 275.23H732.329ZM585.315 170.039H736.83V215.282H585.315V170.039Z" fill="white"/>
<path d="M805.545 275.23V3.77027H926.307C945.809 3.77027 962.81 7.16351 977.312 13.95C991.813 20.4851 1003.06 29.7851 1011.06 41.85C1019.07 53.9149 1023.07 67.9905 1023.07 84.077C1023.07 99.9121 1019.07 113.862 1011.06 125.927C1003.06 137.741 991.813 147.041 977.312 153.827C962.81 160.362 945.809 163.63 926.307 163.63H851.3V121.026H924.807C938.558 121.026 949.059 117.884 956.31 111.6C963.81 105.065 967.561 96.0162 967.561 84.454C967.561 72.6405 963.935 63.7176 956.685 57.6851C949.434 51.4013 938.808 48.2594 924.807 48.2594H863.301V275.23H805.545ZM957.81 275.23L849.424 134.222H910.555L1035.82 275.23H957.81Z" fill="white"/>
<path d="M1118.38 275.23V48.2594H1030.25V3.77027H1264.27V48.2594H1176.14V275.23H1118.38Z" fill="white"/>
<path d="M1278.36 275.23V236.019L1427.62 26.7689L1441.5 48.2594H1283.61V3.77027H1486.5V42.9811L1339.49 249.592L1326.36 230.741H1488V275.23H1278.36Z" fill="white"/>
</g>
</g>
<defs>
<clipPath id="clip0_2218_71429">
<rect width="1488" height="122" fill="white" transform="translate(0.0996094 0.390625)"/>
</clipPath>
</defs>
</svg>
