<svg width="11" height="10" viewBox="0 0 11 10" fill="none" xmlns="http://www.w3.org/2000/svg">
<path d="M0.648438 1.46257C0.648438 1.14505 0.760877 0.88312 0.985755 0.676769C1.21063 0.470363 1.50296 0.367188 1.8628 0.367188C2.21621 0.367188 2.5021 0.46881 2.72054 0.671999C2.94542 0.881567 3.05786 1.15459 3.05786 1.49119C3.05786 1.796 2.94864 2.05 2.7302 2.25319C2.50532 2.46276 2.20977 2.56754 1.8435 2.56754H1.8339C1.4805 2.56754 1.1946 2.46276 0.976103 2.25319C0.757659 2.04362 0.648438 1.78008 0.648438 1.46257ZM0.773746 9.7972V3.43433H2.91331V9.7972H0.773746ZM4.09877 9.7972H6.23833V6.24425C6.23833 6.02198 6.26407 5.85057 6.31543 5.72993C6.40541 5.51398 6.54192 5.33142 6.72503 5.18221C6.90814 5.03299 7.13784 4.95838 7.41414 4.95838C8.13376 4.95838 8.4936 5.43782 8.4936 6.39668V9.7972H10.6332V6.14901C10.6332 5.20917 10.4083 4.49637 9.95852 4.01061C9.50877 3.5248 8.91446 3.28189 8.17553 3.28189C7.34669 3.28189 6.70095 3.63436 6.23833 4.33922V4.35825H6.22868L6.23833 4.33922V3.43433H4.09877C4.11158 3.63752 4.11802 4.26938 4.11802 5.32982C4.11802 6.3903 4.11158 7.87941 4.09877 9.7972Z" fill="white" fill-opacity="0.8"/>
</svg>
