<svg width="12" height="12" viewBox="0 0 12 12" fill="none" xmlns="http://www.w3.org/2000/svg">
<path d="M9.31926 2.73178C9.18763 2.73178 9.05894 2.77084 8.94944 2.84395C8.83999 2.91711 8.75468 3.02106 8.70426 3.14271C8.65389 3.26436 8.64074 3.39815 8.66643 3.52729C8.69211 3.65643 8.75546 3.77502 8.84859 3.8681C8.94167 3.96124 9.06027 4.02459 9.1894 4.05027C9.31854 4.07595 9.45233 4.0628 9.57398 4.01244C9.69563 3.96201 9.79958 3.8767 9.87275 3.76726C9.94586 3.65776 9.98491 3.52907 9.98491 3.39743C9.98491 3.22087 9.91479 3.05157 9.78993 2.92677C9.66512 2.8019 9.49582 2.73178 9.31926 2.73178ZM11.8709 4.07418C11.8601 3.61394 11.7739 3.15858 11.6157 2.72624C11.4747 2.3563 11.2552 2.02137 10.9723 1.74441C10.6976 1.46006 10.3619 1.24195 9.99045 1.10649C9.55928 0.943522 9.10337 0.855323 8.64252 0.845782C8.05453 0.8125 7.86593 0.8125 6.35713 0.8125C4.84832 0.8125 4.65972 0.8125 4.07173 0.845782C3.61088 0.855323 3.15497 0.943522 2.7238 1.10649C2.35309 1.24329 2.0176 1.46129 1.74197 1.74441C1.45762 2.0191 1.23951 2.35481 1.10405 2.72624C0.941081 3.15741 0.852882 3.61332 0.843341 4.07418C0.810058 4.66216 0.810059 4.85077 0.810059 6.35957C0.810059 7.86837 0.810058 8.05697 0.843341 8.64496C0.852882 9.10581 0.941081 9.56172 1.10405 9.9929C1.23951 10.3643 1.45762 10.7 1.74197 10.9747C2.0176 11.2578 2.35309 11.4759 2.7238 11.6126C3.15497 11.7756 3.61088 11.8638 4.07173 11.8734C4.65972 11.9066 4.84832 11.9066 6.35713 11.9066C7.86593 11.9066 8.05453 11.9066 8.64252 11.8734C9.10337 11.8638 9.55928 11.7756 9.99045 11.6126C10.3619 11.4772 10.6976 11.2591 10.9723 10.9747C11.2564 10.6988 11.4761 10.3636 11.6157 9.9929C11.7739 9.56056 11.8601 9.1052 11.8709 8.64496C11.8709 8.05697 11.9042 7.86837 11.9042 6.35957C11.9042 4.85077 11.9042 4.66216 11.8709 4.07418ZM10.8724 8.57839C10.8684 8.93052 10.8047 9.27938 10.6838 9.61015C10.5953 9.85156 10.453 10.0697 10.2678 10.2481C10.0879 10.4314 9.8702 10.5733 9.6299 10.6641C9.29913 10.7849 8.95027 10.8486 8.59814 10.8527C8.04344 10.8804 7.83819 10.886 6.37931 10.886C4.92044 10.886 4.71519 10.886 4.16049 10.8527C3.79488 10.8595 3.43083 10.8033 3.08436 10.6863C2.8546 10.5909 2.64691 10.4493 2.47418 10.2702C2.29007 10.092 2.14956 9.87375 2.0637 9.63234C1.92829 9.29685 1.85313 8.94001 1.84181 8.57839C1.84181 8.02369 1.80853 7.81845 1.80853 6.35957C1.80853 4.90069 1.80853 4.69545 1.84181 4.14074C1.84431 3.78079 1.91004 3.424 2.03596 3.0868C2.13359 2.85266 2.28353 2.64398 2.47418 2.47662C2.6427 2.28591 2.85099 2.13442 3.08436 2.03286C3.42251 1.91082 3.77885 1.84708 4.1383 1.84425C4.69301 1.84425 4.89825 1.81097 6.35713 1.81097C7.816 1.81097 8.02125 1.81097 8.57595 1.84425C8.92808 1.8483 9.27694 1.91204 9.60771 2.03286C9.85977 2.12643 10.086 2.27848 10.2678 2.47662C10.4496 2.64703 10.5916 2.85532 10.6838 3.0868C10.8071 3.42456 10.8709 3.78118 10.8724 4.14074C10.9002 4.69545 10.9057 4.90069 10.9057 6.35957C10.9057 7.81845 10.9002 8.02369 10.8724 8.57839ZM6.35713 3.51392C5.79454 3.51503 5.24494 3.68283 4.77771 3.99618C4.31042 4.30954 3.94659 4.75436 3.73203 5.27445C3.51753 5.79449 3.46194 6.3665 3.57239 6.9181C3.68283 7.46976 3.95425 7.97626 4.35247 8.37371C4.75064 8.7711 5.2577 9.04158 5.80957 9.15091C6.3614 9.2603 6.9333 9.2036 7.45295 8.98804C7.9726 8.77254 8.4167 8.40777 8.72911 7.93993C9.04157 7.47209 9.20832 6.92215 9.20832 6.35957C9.20904 5.9852 9.13576 5.61438 8.99265 5.26846C8.84959 4.92249 8.63952 4.60825 8.37454 4.34382C8.10956 4.07933 7.79487 3.86988 7.44868 3.72743C7.10243 3.58504 6.7315 3.51248 6.35713 3.51392ZM6.35713 8.20674C5.9918 8.20674 5.63468 8.09841 5.33092 7.89544C5.02711 7.69247 4.79036 7.40397 4.65057 7.06643C4.51073 6.72895 4.47417 6.35752 4.54545 5.99917C4.61673 5.64089 4.79263 5.31173 5.05096 5.0534C5.30929 4.79507 5.63845 4.61917 5.99673 4.54789C6.35507 4.47662 6.72651 4.51317 7.06399 4.65301C7.40153 4.7928 7.69003 5.02955 7.893 5.33336C8.09596 5.63712 8.2043 5.99424 8.2043 6.35957C8.2043 6.60214 8.15654 6.84233 8.06368 7.06643C7.97088 7.29059 7.83481 7.49416 7.66329 7.66573C7.49172 7.83725 7.28815 7.97332 7.06399 8.06612C6.83989 8.15898 6.5997 8.20674 6.35713 8.20674Z" fill="white" fill-opacity="0.8"/>
</svg>
