<svg width="16" height="16" viewBox="0 0 16 16" fill="none" xmlns="http://www.w3.org/2000/svg">
<g clip-path="url(#clip0_3180_4718)">
<rect width="16" height="16" rx="8" fill="#5A3FF5"/>
<path d="M1.7796 4.84481H3.03395L1.67721 11.1934H-0.511505L-1.35627 6.04796H-1.53546L-2.36743 11.1934H-4.55614L-5.91289 4.84481H-4.65854L-3.55778 9.99021H-3.42979L-2.58502 4.84481H-0.293914L0.550853 9.99021H0.678848L1.7796 4.84481ZM10.8482 4.84481H12.1026L10.7458 11.1934H8.55713L7.71237 6.04796H7.53317L6.70121 11.1934H4.51249L3.15575 4.84481H4.4101L5.51086 9.99021H5.63885L6.48362 4.84481H8.77473L9.61949 9.99021H9.74749L10.8482 4.84481ZM19.9169 4.84481H21.1712L19.8145 11.1934H17.6258L16.781 6.04796H16.6018L15.7698 11.1934H13.5811L12.2244 4.84481H13.4787L14.5795 9.99021H14.7075L15.5523 4.84481H17.8434L18.6881 9.99021H18.8161L19.9169 4.84481Z" fill="white"/>
</g>
<defs>
<clipPath id="clip0_3180_4718">
<rect width="16" height="16" rx="8" fill="white"/>
</clipPath>
</defs>
</svg>
